PathFileType	4	(X/Y/Z)	71_2_102_p1_0-212.trc
DataRate	CameraRate	NumFrames	NumMarkers	Units	OrigDataRate	OrigDataStartFrame	OrigNumFrames
44.0	44.0	5	27	m	44.0	186	213
Frame#	Time	RHip			RKnee			RAnkle			RBigToe			RSmallToe			RHeel			LHip			LKnee			LAnkle			LBigToe			LSmallToe			LHeel			Neck			Head			Nose			RShoulder			RElbow			RWrist			RThumb			RIndex			RPinky			LShoulder			LElbow			LWrist			LThumb			LIndex			LPinky			
		X1	Y1	Z1	X2	Y2	Z2	X3	Y3	Z3	X4	Y4	Z4	X5	Y5	Z5	X6	Y6	Z6	X7	Y7	Z7	X8	Y8	Z8	X9	Y9	Z9	X10	Y10	Z10	X11	Y11	Z11	X12	Y12	Z12	X13	Y13	Z13	X14	Y14	Z14	X15	Y15	Z15	X16	Y16	Z16	X17	Y17	Z17	X18	Y18	Z18	X19	Y19	Z19	X20	Y20	Z20	X21	Y21	Z21	X22	Y22	Z22	X23	Y23	Z23	X24	Y24	Z24	X25	Y25	Z25	X26	Y26	Z26	X27	Y27	Z27	
186	4.2272727272727275	0.40823352831159215	0.2888618686701903	-0.2617383818318526	0.39109943361689214	0.48431792238105115	0.15293944885558197	0.43448993876841896	0.7179418044438336	0.5961259595722573	0.4017401082068674	0.5104501976522422	0.6532546626987036	0.46773813205054415	0.5222126237098412	0.6376337657844242	0.4074196040064953	0.795755470515892	0.6439899637608969	0.19742799796445773	0.3022859852039171	-0.2597478067135953	0.20082845439235755	0.5340463951245168	0.16142758944784247	0.21092211511691764	0.6873674775522595	0.5777009854687961	0.23779222573007044	0.5063537627241834	0.6408305202421957	0.17667280524665976	0.531782292750905	0.6333261244171451	0.23466315718991201	0.7802112607432579	0.6441523045123192	0.31485447831144164	0.18565667328081784	-0.8053035566253988	0.3123578008989827	0.05139213702446012	-1.0284843163106188	0.3067416194577904	0.001214649054555246	-0.8827632059936286	0.47672711203745727	0.1742546570608072	-0.7140919523991616	0.5689324856618839	0.3496238790434306	-0.48477697488355836	0.4679374055600168	0.4248028053469073	-0.3048422089223318	0.4678304621237061	0.36042133961152006	-0.24014205721611986	0.44073210613768	0.39193101813595477	-0.2378967769728732	0.3580146374396705	0.5979409757322705	-0.2260869423512548	0.13705865096123987	0.2298510976410831	-0.7298914288246757	0.12503454356362775	0.5316414425007625	-0.5124522140475908	0.2112890722870767	0.5111378093713599	-0.34786446237044616	0.24312878987390346	0.5038028766174204	-0.27485253869508386	0.22039126457191735	0.4898495820642341	-0.2526309406129038	0.27549598235154343	0.5430905848190849	-0.26497966119841376
187	4.25	0.4083382447358079	0.2888715351850632	-0.2617933267724267	0.3916885870288825	0.4848758166282353	0.1570216250152138	0.4344130840206165	0.7178964150525657	0.5961755580200045	0.39787123814443387	0.5260505520747256	0.6582470690109047	0.46757470383334665	0.5221851985365465	0.6376368052316593	0.40736891644076256	0.7957533891991417	0.6439790690588889	0.20000083259168397	0.3152355750870306	-0.2636326202938731	0.2008541909968817	0.5339603560444541	0.16134893956389842	0.21092395612979195	0.687350533154238	0.5776864381270151	0.2409173121606458	0.5209433154189818	0.6449244704316112	0.17256010964517696	0.5461149969181677	0.6338510870544004	0.2346472663681	0.7796608975635565	0.6440617488152494	0.31517309435295254	0.18718809774342843	-0.8019793114520074	0.31232128134903897	0.051284890315650186	-1.0284508203973757	0.306750068269099	0.0012175099316435846	-0.8827237658962291	0.47667451846691405	0.1742469017207203	-0.7141099552259791	0.5685278955700497	0.3514959974327692	-0.481536871418597	0.4646217920961848	0.4077121809490403	-0.3038539605544956	0.4670476381881887	0.36018740009135264	-0.24346179345684713	0.43570123470553795	0.3919281499512929	-0.24458649602380236	0.37505133625695297	0.5558687978914366	-0.24240218783472173	0.13704423415395406	0.22999086508965563	-0.7299373106156198	0.11823203278624786	0.4986222947654623	-0.5156003106734031	0.20158618507147236	0.48787680912814413	-0.34080943869005126	0.24334383976560506	0.4868663450923165	-0.2834117042971922	0.22662510334421532	0.47520704601344926	-0.2635132406104794	0.28066756352454014	0.5265531946460468	-0.2742604887845551
188	4.2727272727272725	0.4080036492806166	0.28862228200730916	-0.2654944332922309	0.3911924489594275	0.4845021292721924	0.15306951505471952	0.4344313705862827	0.7178583107943224	0.5961365442230087	0.4015322455029302	0.5102038103167092	0.6535761384928737	0.4673893586683303	0.5222147305324097	0.6377079844465029	0.40720927306689175	0.7957551288260946	0.6439772344988502	0.19707160477601784	0.30201916642964677	-0.2636744378658638	0.20084184773252434	0.5340183903920305	0.16128047845023635	0.21091342222078052	0.6873099867749497	0.5775864020724691	0.24091998441009954	0.5209272274335986	0.6448992615645542	0.17256171764445147	0.5459385809299647	0.6337679243616741	0.22952401840541162	0.7982357861507227	0.6491508980505177	0.31485901083784773	0.18573872442403722	-0.8053243073992656	0.31233681595513313	0.0514741135122902	-1.0285049611286605	0.30676184928207273	0.0011915449045231895	-0.8826936771678956	0.4766216493904908	0.1743888277401516	-0.7140780150207412	0.5637464714594171	0.3525729888468031	-0.48102589937357537	0.47020502314161156	0.40448097775686653	-0.3041224434827594	0.46626481425267124	0.3599534605711852	-0.2467815296975744	0.43067036327339586	0.39192528176663105	-0.2512762150747315	0.39851186894699886	0.5015534417024212	-0.21953029563965432	0.1370232785351826	0.23006031829764872	-0.7299372198703548	0.10993490972146593	0.47499492356057216	-0.5128123440103058	0.18334265604748598	0.4419009505685007	-0.3406983766277941	0.24355888965730665	0.46992981356721253	-0.29197086989930054	0.2328589421165133	0.46056450996266435	-0.27439554060805516	0.28583914469753685	0.5100158044730088	-0.2835413163706965
189	4.295454545454546	0.412180226365003	0.30146146871358015	-0.26195070353481553	0.3912438511644638	0.4845384110407999	0.15302550815131344	0.4385072558703723	0.7008153832969304	0.5915028724555406	0.40162579513722807	0.5106248438892953	0.653624610021557	0.4700988097628113	0.5086746395342934	0.6372258330789579	0.40689416810079926	0.7962418653327542	0.6403495773293375	0.20006034869935424	0.3154195696916468	-0.2636910481237149	0.20080056014964168	0.5340741410798577	0.16125652859985307	0.21096329853877033	0.6871850792676439	0.577598988195374	0.24091059670607262	0.5207149324795121	0.6449137267003077	0.17258959436627314	0.546299186323931	0.6338989084563846	0.2346839411052954	0.7793866774962986	0.6439417432938468	0.31132159238239615	0.19923837701169633	-0.8039929094408684	0.3124361245772445	0.051861773072634225	-1.0259333327367763	0.3104728727381386	0.0014882036750856235	-0.8829605149189469	0.47355734076465994	0.18812284048014022	-0.7160636514351696	0.5666112827050959	0.3388131656277828	-0.48016832104083546	0.4646477971519805	0.40792719758266077	-0.30329838255161556	0.4654819903171538	0.3597195210510178	-0.2501012659383016	0.4256394918412538	0.3919224135819692	-0.2579659341256607	0.3784526752432138	0.5490638577895526	-0.21936485851606735	0.14080094577713712	0.2321923403373038	-0.7304653118918892	0.10948544837687754	0.47543935543868415	-0.5072523067636152	0.18242346190101183	0.43850230471080853	-0.3461153300779021	0.24377393954900825	0.4529932820421086	-0.3005300355014089	0.2390927808888113	0.44592197391187943	-0.2852778406056308	0.27575794774605783	0.485175980540183	-0.28491865263787136
190	4.318181818181818	0.4120674113893164	0.301282283040868	-0.26200467379553805	0.3954940074938924	0.48541420609179037	0.1528146819903684	0.43849196540301477	0.7008967838921936	0.5915961268243136	0.397780580105627	0.5260651284646494	0.6583692182923301	0.4667300679846394	0.5235625479740766	0.6417749706292345	0.40691334086591	0.7959384361322095	0.6402065615733556	0.19947094021974932	0.31370492834135816	-0.26733332887294436	0.19966245727377965	0.5315196774835942	0.1526507302687855	0.21094093975022102	0.6873256298511748	0.5775941005119163	0.2409169668097453	0.5206376364312685	0.6449453811205921	0.1717079712090291	0.5474747617436672	0.6380385522871814	0.23915869209399634	0.7839345762407138	0.6404186194391684	0.31131352553520025	0.19927536928421813	-0.8039665421251779	0.31238462540904194	0.0519669049281983	-1.025960382412467	0.3067568497449854	0.0012463387033436902	-0.882603846458246	0.4734509428312629	0.18802085693021214	-0.71604057938284	0.5720666066186773	0.34090211206193943	-0.47695725415818047	0.46457391228531314	0.4076108777308253	-0.3034739146760788	0.4646991663816364	0.35948558153085036	-0.2534210021790289	0.42060862040911173	0.39191954539730733	-0.2646556531765899	0.35839348153942874	0.5965742738766838	-0.21919942139248036	0.1407988040439936	0.23217960020615397	-0.7304180393687362	0.10847376677523654	0.4709015104024693	-0.5067363816637418	0.18237272087179496	0.43834702171024253	-0.3466914577768689	0.24398898944070987	0.43605675051700465	-0.30908920110351723	0.24532661966110927	0.4312794378610946	-0.29616014060320645	0.2663303738316619	0.4603619970183952	-0.29001694782928517
